<?xml version="1.0" encoding="UTF-8"?>
<svg id="Layer_1" data-name="Layer 1" xmlns="http://www.w3.org/2000/svg" version="1.1" viewBox="0 0 512 512">
  <defs>
    <style>
      .cls-1 {
        fill: #7279c0;
      }

      .cls-1, .cls-2, .cls-3 {
        stroke-width: 0px;
      }

      .cls-2 {
        fill: #000;
      }

      .cls-3 {
        fill: #96d78c;
      }
    </style>
  </defs>
  <g>
    <rect class="cls-1" x="144.15" y="58.68" width="149" height="414.48" rx="73.91" ry="73.91"/>
    <path class="cls-2" d="M219.25,59.47c40.32,0,73.12,32.8,73.12,73.12v266.67c0,40.32-32.8,73.12-73.12,73.12h-1.19c-40.32,0-73.12-32.8-73.12-73.12V132.58c0-40.32,32.8-73.12,73.12-73.12h1.19M219.25,57.89h-1.19c-41.25,0-74.69,33.44-74.69,74.69v266.67c0,41.25,33.44,74.69,74.69,74.69h1.19c41.25,0,74.69-33.44,74.69-74.69V132.58c0-41.25-33.44-74.69-74.69-74.69h0Z"/>
  </g>
  <g>
    <path class="cls-3" d="M63.4,350.44h171.44c32.19,0,58.33,26.14,58.33,58.33v6.08c0,32.19-26.14,58.33-58.33,58.33H63.4c-32.19,0-58.33-26.14-58.33-58.33v-6.08c0-32.19,26.14-58.33,58.33-58.33Z"/>
    <path class="cls-2" d="M234.85,351.21c31.74,0,57.57,25.82,57.57,57.57v6.08c0,31.74-25.82,57.57-57.57,57.57H63.4c-31.74,0-57.57-25.82-57.57-57.57v-6.08c0-31.74,25.82-57.57,57.57-57.57h171.44M234.85,349.68H63.4c-32.5,0-59.09,26.59-59.09,59.09v6.08c0,32.5,26.59,59.09,59.09,59.09h171.44c32.5,0,59.09-26.59,59.09-59.09v-6.08c0-32.5-26.59-59.09-59.09-59.09h0Z"/>
  </g>
  <g>
    <path class="cls-1" d="M49.31,301.77h1.74c24.87,0,45.05,20.19,45.05,45.05v81.28c0,24.87-20.19,45.05-45.05,45.05h-1.74c-24.87,0-45.05-20.19-45.05-45.05v-81.28c0-24.87,20.19-45.05,45.05-45.05Z"/>
    <path class="cls-2" d="M51.05,302.56c24.41,0,44.27,19.86,44.27,44.27v81.28c0,24.41-19.86,44.27-44.27,44.27h-1.74c-24.41,0-44.27-19.86-44.27-44.27v-81.28c0-24.41,19.86-44.27,44.27-44.27h1.74M51.05,300.98h-1.74c-25.21,0-45.84,20.63-45.84,45.84v81.28c0,25.21,20.63,45.84,45.84,45.84h1.74c25.21,0,45.84-20.63,45.84-45.84v-81.28c0-25.21-20.63-45.84-45.84-45.84h0Z"/>
  </g>
  <g>
    <path class="cls-3" d="M323.7,311.23c-19.91,0-38.62-7.75-52.7-21.83l-106.98-106.98c-14.08-14.08-21.83-32.79-21.83-52.7s7.75-38.62,21.83-52.7c14.08-14.08,32.79-21.83,52.7-21.83s38.62,7.75,52.7,21.83l106.98,106.98c14.08,14.08,21.83,32.79,21.83,52.7s-7.75,38.62-21.83,52.7-32.79,21.83-52.7,21.83Z"/>
    <path class="cls-2" d="M216.72,55.96c19.7,0,38.22,7.67,52.16,21.6l106.98,106.98c28.76,28.76,28.76,75.55,0,104.31-13.93,13.93-32.45,21.6-52.16,21.6s-38.22-7.67-52.16-21.6l-106.98-106.98c-28.76-28.76-28.76-75.55,0-104.31,13.93-13.93,32.45-21.6,52.16-21.6M216.72,54.44c-19.27,0-38.53,7.35-53.24,22.05h0c-29.4,29.4-29.4,77.07,0,106.47l106.98,106.98c14.7,14.7,33.97,22.05,53.24,22.05s38.53-7.35,53.24-22.05h0c29.4-29.4,29.4-77.07,0-106.47l-106.98-106.98c-14.7-14.7-33.97-22.05-53.24-22.05h0Z"/>
  </g>
  <g>
    <path class="cls-1" d="M325.29,312.72c-19.09,0-37.24-7.22-51.13-20.33-29.87-28.2-31.23-75.44-3.03-105.31l103.86-110.01c14.22-15.06,33.46-23.36,54.18-23.36,19.09,0,37.24,7.22,51.13,20.33,14.47,13.66,22.75,32.14,23.33,52.03s-6.64,38.81-20.3,53.28l-103.86,110.01c-14.22,15.06-33.46,23.36-54.18,23.36Z"/>
    <path class="cls-2" d="M429.19,54.5c18.88,0,36.85,7.14,50.58,20.11,14.32,13.52,22.51,31.8,23.08,51.48.57,19.68-6.57,38.4-20.08,52.72l-103.86,110.01c-14.07,14.9-33.11,23.11-53.61,23.11-18.88,0-36.85-7.14-50.59-20.11-14.32-13.52-22.51-31.8-23.08-51.48-.57-19.68,6.57-38.4,20.08-52.72l103.86-110.01c14.07-14.9,33.11-23.11,53.61-23.11h0M429.18,52.92c-19.99,0-39.95,7.92-54.76,23.6l-103.86,110.01c-28.54,30.23-27.17,77.88,3.06,106.43h0c14.55,13.74,33.13,20.54,51.67,20.54,19.99,0,39.95-7.92,54.76-23.6l103.86-110.01c28.54-30.23,27.17-77.88-3.06-106.43h0c-14.55-13.74-33.13-20.54-51.67-20.54h0Z"/>
  </g>
  <g>
    <path class="cls-3" d="M433.25,473.18c-41.09,0-74.52-33.43-74.52-74.52V126.54c0-41.09,33.43-74.52,74.52-74.52s74.52,33.43,74.52,74.52v272.12c0,41.09-33.43,74.52-74.52,74.52Z"/>
    <path class="cls-2" d="M433.25,52.78c40.67,0,73.76,33.09,73.76,73.76v272.12c0,40.67-33.09,73.76-73.76,73.76s-73.76-33.09-73.76-73.76V126.54c0-40.67,33.09-73.76,73.76-73.76M433.25,51.25h0c-41.58,0-75.29,33.71-75.29,75.29v272.12c0,41.58,33.71,75.29,75.29,75.29h0c41.58,0,75.29-33.71,75.29-75.29V126.54c0-41.58-33.71-75.29-75.29-75.29h0Z"/>
  </g>
</svg>